<?xml version="1.0" encoding="UTF-8" standalone="no"?>
<!-- Created with Inkscape (http://www.inkscape.org/) -->

<svg
   width="128"
   height="128"
   viewBox="0 0 128 128"
   version="1.1"
   id="svg1"
   xml:space="preserve"
   sodipodi:docname="icon.svg"
   inkscape:export-filename="icon-128.png"
   inkscape:export-xdpi="96"
   inkscape:export-ydpi="96"
   inkscape:version="1.4.3 (0d15f75, 2025-12-25)"
   xmlns:inkscape="http://www.inkscape.org/namespaces/inkscape"
   xmlns:sodipodi="http://sodipodi.sourceforge.net/DTD/sodipodi-0.dtd"
   xmlns="http://www.w3.org/2000/svg"
   xmlns:svg="http://www.w3.org/2000/svg"><sodipodi:namedview
     id="namedview1"
     pagecolor="#ffffff"
     bordercolor="#000000"
     borderopacity="0.25"
     inkscape:showpageshadow="2"
     inkscape:pageopacity="0.0"
     inkscape:pagecheckerboard="0"
     inkscape:deskcolor="#d1d1d1"
     inkscape:zoom="2.8284271"
     inkscape:cx="56.922096"
     inkscape:cy="33.587572"
     inkscape:window-width="1732"
     inkscape:window-height="1075"
     inkscape:window-x="0"
     inkscape:window-y="30"
     inkscape:window-maximized="0"
     inkscape:current-layer="svg1" /><defs
     id="defs1" /><rect
     style="fill:#000000;fill-opacity:1;stroke:#000000;stroke-width:5.33333;stroke-dasharray:none;stroke-opacity:1"
     id="rect838"
     width="122.66667"
     height="122.66669"
     x="2.6666651"
     y="2.6666651"
     ry="21.333336" /><g
     id="g1"
     transform="translate(16.617008,-16.61701)"><path
       id="rect1"
       style="fill:#000000;fill-opacity:1;stroke:#ffffff;stroke-width:6.8671;stroke-opacity:1"
       d="m 11.67407,36.667569 h 71.417845 c 4.565248,0 8.240517,3.675272 8.240517,8.24052 v 71.417841 c 0,4.56525 -3.675269,8.24052 -8.240517,8.24052 H 11.67407 c -4.5652481,0 -8.2405201,-3.67527 -8.2405201,-8.24052 V 44.908089 c 0,-4.565248 3.675272,-8.24052 8.2405201,-8.24052 z" /><rect
       style="fill:#ffffff;fill-opacity:1;stroke:none;stroke-width:3.58426;stroke-dasharray:none;stroke-opacity:1"
       id="rect2"
       width="94.765984"
       height="22.210777"
       x="0"
       y="105.78922" /><g
       style="fill:#ffffff;fill-opacity:1"
       id="g2"
       transform="matrix(2.9049208,0,0,2.9049208,24.143624,51.575219)"><path
         d="m 9.405,1.05 c -0.413,-1.4 -2.397,-1.4 -2.81,0 l -0.1,0.34 A 1.464,1.464 0 0 1 4.39,2.262 L 4.08,2.092 C 2.797,1.394 1.394,2.797 2.093,4.079 L 2.262,4.39 C 2.708,5.21 2.285,6.231 1.39,6.495 l -0.34,0.1 c -1.4,0.413 -1.4,2.397 0,2.81 l 0.34,0.1 a 1.464,1.464 0 0 1 0.872,2.105 l -0.17,0.31 c -0.698,1.283 0.705,2.686 1.987,1.987 L 4.39,13.738 a 1.464,1.464 0 0 1 2.105,0.872 l 0.1,0.34 c 0.413,1.4 2.397,1.4 2.81,0 l 0.1,-0.34 a 1.464,1.464 0 0 1 2.105,-0.872 l 0.31,0.17 c 1.283,0.698 2.686,-0.705 1.987,-1.987 L 13.738,11.61 A 1.464,1.464 0 0 1 14.61,9.505 l 0.34,-0.1 c 1.4,-0.413 1.4,-2.397 0,-2.81 l -0.34,-0.1 A 1.464,1.464 0 0 1 13.738,4.39 l 0.17,-0.31 C 14.606,2.797 13.203,1.394 11.921,2.093 L 11.61,2.262 A 1.464,1.464 0 0 1 9.505,1.39 Z M 8,10.93 a 2.93,2.93 0 1 1 0,-5.86 2.929,2.929 0 0 1 0,5.858 z"
         id="path1"
         style="fill:#ffffff;fill-opacity:1" /></g></g></svg>
